<svg width="32" height="22" viewBox="0 0 40 28" fill="none" xmlns="http://www.w3.org/2000/svg">
<path d="M8.167 27.333C5.889 27.333 3.95833 26.5413 2.375 24.958C0.791667 23.3747 0 21.4303 0 19.125C0 16.847 0.798667 14.9163 2.396 13.333C3.99333 11.7497 5.93067 10.958 8.208 10.958C10.236 10.958 11.986 11.597 13.458 12.875C14.9307 14.153 15.8337 15.7503 16.167 17.667H17.958L14.667 8.45799H13.042C12.6527 8.45799 12.326 8.32633 12.062 8.06299C11.7987 7.79899 11.667 7.45866 11.667 7.04199C11.667 6.65266 11.7987 6.32633 12.062 6.06299C12.326 5.79899 12.6527 5.66699 13.042 5.66699H18.292C18.6807 5.66699 19.007 5.79899 19.271 6.06299C19.535 6.32633 19.667 6.65266 19.667 7.04199C19.667 7.45866 19.535 7.79899 19.271 8.06299C19.007 8.32633 18.6807 8.45799 18.292 8.45799H17.625L18.542 10.958H27.375L24.583 3.45799H21.625C21.2083 3.45799 20.868 3.32633 20.604 3.06299C20.34 2.79899 20.208 2.45866 20.208 2.04199C20.208 1.65266 20.34 1.32633 20.604 1.06299C20.868 0.798993 21.2083 0.666992 21.625 0.666992H24.417C25.111 0.666992 25.7013 0.833659 26.188 1.16699C26.674 1.50033 27.042 1.98633 27.292 2.62499L30.333 10.958H31.833C34.111 10.958 36.0417 11.7427 37.625 13.312C39.2083 14.882 40 16.792 40 19.042C40 21.3193 39.2083 23.2707 37.625 24.896C36.0417 26.5207 34.111 27.333 31.833 27.333C29.833 27.333 28.083 26.6803 26.583 25.375C25.083 24.0697 24.1527 22.4307 23.792 20.458H16.167C15.8337 22.4307 14.924 24.0697 13.438 25.375C11.9513 26.6803 10.1943 27.333 8.167 27.333V27.333ZM8.167 24.542C9.44433 24.542 10.5483 24.153 11.479 23.375C12.4097 22.597 13.0417 21.6247 13.375 20.458H9.875C9.48633 20.458 9.16 20.326 8.896 20.062C8.632 19.7987 8.5 19.4587 8.5 19.042C8.5 18.6527 8.632 18.326 8.896 18.062C9.16 17.7987 9.48633 17.667 9.875 17.667H13.375C13.0417 16.5003 12.4027 15.5557 11.458 14.833C10.514 14.111 9.43067 13.75 8.208 13.75C6.68067 13.75 5.396 14.2707 4.354 15.312C3.31267 16.354 2.792 17.625 2.792 19.125C2.792 20.625 3.31267 21.9027 4.354 22.958C5.396 24.014 6.667 24.542 8.167 24.542ZM20.917 17.667H23.792C23.9307 17.0277 24.146 16.354 24.438 15.646C24.7293 14.9373 25.125 14.3053 25.625 13.75H19.5L20.917 17.667ZM31.833 24.542C33.333 24.542 34.604 24.014 35.646 22.958C36.6873 21.9027 37.208 20.625 37.208 19.125C37.208 17.625 36.6873 16.354 35.646 15.312C34.604 14.2707 33.333 13.75 31.833 13.75H31.333L32.5 17.042C32.6387 17.4027 32.6247 17.7497 32.458 18.083C32.2913 18.4163 32.0137 18.6663 31.625 18.833C31.2917 18.9723 30.9583 18.9587 30.625 18.792C30.2917 18.6253 30.0417 18.3613 29.875 18L28.625 14.708C27.903 15.1807 27.3613 15.8057 27 16.583C26.6387 17.361 26.458 18.2083 26.458 19.125C26.458 20.625 26.979 21.9027 28.021 22.958C29.0623 24.014 30.333 24.542 31.833 24.542V24.542Z" fill="#ffbb00"/>
</svg>
