<svg width="32" height="22" viewBox="0 0 33 33" fill="none" xmlns="http://www.w3.org/2000/svg">
<path d="M5.07938 32.417C4.69009 32.417 4.37211 32.3036 4.12545 32.0769C3.8788 31.8496 3.75547 31.5683 3.75547 31.2331C3.75547 30.8744 3.8788 30.5816 4.12545 30.3549C4.37211 30.1276 4.69009 30.0139 5.07938 30.0139H28.6706C29.0599 30.0139 29.3779 30.1333 29.6245 30.3721C29.8712 30.6115 29.9945 30.8985 29.9945 31.2331C29.9945 31.5683 29.8712 31.8496 29.6245 32.0769C29.3779 32.3036 29.0599 32.417 28.6706 32.417H5.07938ZM5.07938 2.82005C4.69009 2.82005 4.37211 2.70066 4.12545 2.46187C3.8788 2.22251 3.75547 1.93551 3.75547 1.60087C3.75547 1.26565 3.8788 0.984679 4.12545 0.757949C4.37211 0.530644 4.69009 0.416992 5.07938 0.416992H28.6706C29.0599 0.416992 29.3779 0.530644 29.6245 0.757949C29.8712 0.984679 29.9945 1.26565 29.9945 1.60087C29.9945 1.95962 29.8712 2.25265 29.6245 2.47995C29.3779 2.70668 29.0599 2.82005 28.6706 2.82005H5.07938ZM16.875 17.8523C18.1986 17.8523 19.3079 17.4396 20.203 16.6142C21.0987 15.7893 21.5465 14.767 21.5465 13.5473C21.5465 12.3275 21.0987 11.3049 20.203 10.4795C19.3079 9.65468 18.1986 9.24226 16.875 9.24226C15.5514 9.24226 14.4421 9.65468 13.547 10.4795C12.6513 11.3049 12.2035 12.3275 12.2035 13.5473C12.2035 14.767 12.6513 15.7893 13.547 16.6142C14.4421 17.4396 15.5514 17.8523 16.875 17.8523ZM3.79471 28.112C2.98996 28.112 2.30231 27.8431 1.73176 27.3052C1.16059 26.7668 0.875 26.1271 0.875 25.386V7.44793C0.875 6.65868 1.16059 6.00719 1.73176 5.49346C2.30231 4.97915 2.98996 4.722 3.79471 4.722H29.9553C30.76 4.722 31.4477 4.99092 32.0182 5.52876C32.5894 6.06717 32.875 6.7069 32.875 7.44793V25.386C32.875 26.1271 32.5894 26.7668 32.0182 27.3052C31.4477 27.8431 30.76 28.112 29.9553 28.112H3.79471ZM6.75366 25.4937C7.9994 24.0346 9.51765 22.9104 11.3084 22.1211C13.0992 21.3319 14.9547 20.9373 16.875 20.9373C18.7698 20.9373 20.6253 21.3319 22.4416 22.1211C24.2585 22.9104 25.7768 24.0346 26.9963 25.4937H30.0721V7.34031H3.67792V25.4937H6.75366ZM10.8412 25.4937H22.948C22.1694 24.8715 21.274 24.3749 20.2619 24.0041C19.2497 23.6339 18.1207 23.4488 16.875 23.4488C15.6293 23.4488 14.5134 23.6339 13.5274 24.0041C12.5408 24.3749 11.6454 24.8715 10.8412 25.4937V25.4937ZM16.875 15.3769C16.33 15.3769 15.8694 15.1975 15.4932 14.8388C15.1169 14.48 14.9288 14.0495 14.9288 13.5473C14.9288 13.045 15.1169 12.6205 15.4932 12.2739C15.8694 11.9266 16.33 11.7529 16.875 11.7529C17.42 11.7529 17.8806 11.9266 18.2568 12.2739C18.6331 12.6205 18.8212 13.045 18.8212 13.5473C18.8212 14.0495 18.6331 14.48 18.2568 14.8388C17.8806 15.1975 17.42 15.3769 16.875 15.3769Z" fill="#ffbb00"/>
</svg>
