<svg width="24" height="24" viewBox="0 0 32 32" fill="none" xmlns="http://www.w3.org/2000/svg">
<path d="M1.33333 32C0.948148 32 0.62963 31.8111 0.377778 31.4333C0.125926 31.0556 0 30.5778 0 30C0 29.4222 0.125926 28.9444 0.377778 28.5667C0.62963 28.1889 0.948148 28 1.33333 28H30.6667C31.0519 28 31.3704 28.1889 31.6222 28.5667C31.8741 28.9444 32 29.4222 32 30C32 30.5778 31.8741 31.0556 31.6222 31.4333C31.3704 31.8111 31.0519 32 30.6667 32H1.33333ZM1.33333 18C0.948148 18 0.62963 17.8111 0.377778 17.4333C0.125926 17.0556 0 16.5778 0 16C0 15.4222 0.125926 14.9444 0.377778 14.5667C0.62963 14.1889 0.948148 14 1.33333 14H30.6667C31.0519 14 31.3704 14.1889 31.6222 14.5667C31.8741 14.9444 32 15.4222 32 16C32 16.5778 31.8741 17.0556 31.6222 17.4333C31.3704 17.8111 31.0519 18 30.6667 18H1.33333ZM1.33333 4C0.948148 4 0.62963 3.81111 0.377778 3.43333C0.125926 3.05556 0 2.57778 0 2C0 1.42222 0.125926 0.944445 0.377778 0.566667C0.62963 0.188889 0.948148 0 1.33333 0H30.6667C31.0519 0 31.3704 0.188889 31.6222 0.566667C31.8741 0.944445 32 1.42222 32 2C32 2.57778 31.8741 3.05556 31.6222 3.43333C31.3704 3.81111 31.0519 4 30.6667 4H1.33333Z" fill="white"/>
</svg>
