<svg width="33" height="33" viewBox="0 0 33 33" fill="none" xmlns="http://www.w3.org/2000/svg">
<path d="M16.95 19.5247L4.07639 32.3983C3.70857 32.7661 3.27945 32.95 2.78903 32.95C2.29861 32.95 1.86949 32.7661 1.50168 32.3983C1.13386 32.0305 0.949951 31.6014 0.949951 31.1109C0.949951 30.6205 1.13386 30.1914 1.50168 29.8236L14.3752 16.95L1.50168 4.07645C1.13386 3.70863 0.949951 3.27951 0.949951 2.78909C0.949951 2.29867 1.13386 1.86955 1.50168 1.50174C1.86949 1.13392 2.29861 0.950012 2.78903 0.950012C3.27945 0.950012 3.70857 1.13392 4.07639 1.50174L16.95 14.3753L29.8235 1.50174C30.1913 1.13392 30.6204 0.950012 31.1109 0.950012C31.6013 0.950012 32.0304 1.13392 32.3982 1.50174C32.766 1.86955 32.95 2.29867 32.95 2.78909C32.95 3.27951 32.766 3.70863 32.3982 4.07645L19.5247 16.95L32.3982 29.8236C32.766 30.1914 32.95 30.6205 32.95 31.1109C32.95 31.6014 32.766 32.0305 32.3982 32.3983C32.0304 32.7661 31.6013 32.95 31.1109 32.95C30.6204 32.95 30.1913 32.7661 29.8235 32.3983L16.95 19.5247Z" fill="white"/>
</svg>
