<svg width="32" height="22" viewBox="0 0 32 32" fill="none" xmlns="http://www.w3.org/2000/svg">
<path d="M4.43902 32C3.20325 32 2.1548 31.6689 1.29366 31.0066C0.431219 30.3434 0 29.5365 0 28.5862V13.8054C0 12.88 0.431219 12.0797 1.29366 11.4045C2.1548 10.7292 3.20325 10.3916 4.43902 10.3916H6.04878V7.65299C6.04878 5.52716 7.01593 3.71995 8.95024 2.23137C10.8859 0.74379 13.2358 0 16 0C18.7642 0 21.1141 0.74379 23.0498 2.23137C24.9841 3.71995 25.9512 5.52716 25.9512 7.65299V10.3916H27.561C28.7967 10.3916 29.8459 10.7292 30.7083 11.4045C31.5694 12.0797 32 12.88 32 13.8054V28.5862C32 29.5365 31.5694 30.3434 30.7083 31.0066C29.8459 31.6689 28.7967 32 27.561 32H4.43902ZM4.43902 28.5862H27.561V13.8054H4.43902V28.5862ZM16 24.197C17.0732 24.197 17.9922 23.9028 18.7571 23.3146C19.5206 22.7274 19.9024 22.0211 19.9024 21.1958C19.9024 20.3705 19.5206 19.6637 18.7571 19.0755C17.9922 18.4882 17.0732 18.1946 16 18.1946C14.9268 18.1946 14.0085 18.4882 13.2449 19.0755C12.48 19.6637 12.0976 20.3705 12.0976 21.1958C12.0976 22.0211 12.48 22.7274 13.2449 23.3146C14.0085 23.9028 14.9268 24.197 16 24.197ZM10.4878 10.3916H21.5122V7.65299C21.5122 6.47753 20.9756 5.47714 19.9024 4.65182C18.8293 3.82649 17.5285 3.41383 16 3.41383C14.4715 3.41383 13.1707 3.82649 12.0976 4.65182C11.0244 5.47714 10.4878 6.47753 10.4878 7.65299V10.3916ZM4.43902 28.5862V13.8054V28.5862Z" fill="#ffbb00"/>
</svg>
