<svg width="15" height="7" viewBox="0 0 15 7" fill="none" xmlns="http://www.w3.org/2000/svg">
<path d="M7.65555 6.21521C7.53226 6.21521 7.41925 6.19975 7.31651 6.16882C7.21377 6.1379 7.11103 6.08378 7.00829 6.00647L0.905592 1.4142C0.74121 1.2905 0.664156 1.12429 0.674429 0.915546C0.684703 0.706807 0.772032 0.540588 0.936414 0.41689C1.14189 0.262268 1.36278 0.196555 1.59908 0.219748C1.83538 0.242941 2.046 0.316387 2.23093 0.440084L7.65555 4.5221L13.0802 0.440084C13.2446 0.316387 13.4654 0.246806 13.7428 0.231344C14.0202 0.215882 14.2411 0.285462 14.4055 0.440084C14.611 0.563782 14.6983 0.726134 14.6675 0.927143C14.6367 1.12815 14.5391 1.29824 14.3747 1.43739L8.30281 6.00647C8.20007 6.08378 8.09733 6.1379 7.99459 6.16882C7.89185 6.19975 7.77884 6.21521 7.65555 6.21521V6.21521Z" fill="#ffffff"/>
</svg>
